<svg width="103" height="101" viewBox="0 0 103 101" fill="none" xmlns="http://www.w3.org/2000/svg">
<path d="M41.228 10C41.228 4.47716 45.7052 0 51.228 0H51.7462C57.269 0 61.7462 4.47715 61.7462 10V90.6993C61.7462 96.2221 57.269 100.699 51.7462 100.699H51.228C45.7052 100.699 41.228 96.2221 41.228 90.6993V10Z" fill="#979797"/>
<path d="M10.1919 60.4199C4.66905 60.4199 0.191895 55.8728 0.191895 50.35C0.191895 44.8271 4.66905 40.2801 10.1919 40.2801H92.7826C98.3054 40.2801 102.783 44.8271 102.783 50.35C102.783 55.8728 98.3054 60.4199 92.7826 60.4199L10.1919 60.4199Z" fill="#979797"/>
</svg>
