<svg width="45" height="45" viewBox="0 0 45 45" fill="none" xmlns="http://www.w3.org/2000/svg">
<path fill-rule="evenodd" clip-rule="evenodd" d="M7.90702 1.40625H37.093C40.6831 1.40625 43.5938 4.31676 43.5938 7.90702V37.093C43.5938 40.6831 40.6831 43.5938 37.093 43.5938H7.90702C4.31676 43.5938 1.40625 40.6831 1.40625 37.093V7.90702C1.40625 4.31676 4.31676 1.40625 7.90702 1.40625Z" fill="#4C75A3"/>
<path fill-rule="evenodd" clip-rule="evenodd" d="M22.1456 30.9388H23.8713C23.8713 30.9388 24.3924 30.8813 24.6589 30.5946C24.9038 30.3311 24.896 29.8366 24.896 29.8366C24.896 29.8366 24.8622 27.5211 25.9368 27.1801C26.9964 26.844 28.3568 29.418 29.7987 30.4078C30.889 31.1566 31.7176 30.9927 31.7176 30.9927L35.5733 30.9388C35.5733 30.9388 37.5902 30.8143 36.6338 29.2285C36.5555 29.099 36.0767 28.0555 33.7669 25.9116C31.3491 23.6676 31.6732 24.0306 34.5854 20.1491C36.359 17.7853 37.0679 16.3422 36.8464 15.7242C36.6354 15.1353 35.3308 15.2909 35.3308 15.2909L30.9896 15.3177C30.9896 15.3177 30.6675 15.2739 30.429 15.4166C30.1957 15.5562 30.0459 15.8824 30.0459 15.8824C30.0459 15.8824 29.3586 17.7114 28.4425 19.2672C26.5095 22.5497 25.7364 22.7234 25.4204 22.5193C24.6852 22.0442 24.869 20.6111 24.869 19.5927C24.869 16.4115 25.3515 15.0852 23.9294 14.7419C23.4575 14.628 23.1099 14.5527 21.903 14.5404C20.3539 14.5246 19.0432 14.5451 18.3008 14.9088C17.8069 15.1507 17.4258 15.6895 17.658 15.7205C17.9451 15.7587 18.5947 15.8959 18.9391 16.3646C19.3841 16.97 19.3686 18.3291 19.3686 18.3291C19.3686 18.3291 19.6243 22.0738 18.7716 22.5388C18.1865 22.8578 17.3838 22.2065 15.6603 19.2285C14.7774 17.7031 14.1106 16.0168 14.1106 16.0168C14.1106 16.0168 13.9822 15.7017 13.7528 15.533C13.4747 15.3287 13.086 15.2639 13.086 15.2639L8.96057 15.2909C8.96057 15.2909 8.34142 15.3081 8.11389 15.5775C7.91147 15.8172 8.09772 16.3124 8.09772 16.3124C8.09772 16.3124 11.3273 23.8685 14.9844 27.6763C18.3381 31.1679 22.1456 30.9388 22.1456 30.9388Z" fill="white"/>
</svg>
