<svg width="20" height="25" viewBox="0 0 20 25" fill="none" xmlns="http://www.w3.org/2000/svg">
<path d="M10.0277 2.10883C6.31385 2.10883 3.29562 5.18386 3.29562 8.96764V12.2713C3.29562 12.9686 3.00389 14.0317 2.65607 14.6262L1.36574 16.8096C0.569107 18.1585 1.1189 19.656 2.57752 20.1589C7.41343 21.8051 12.6308 21.8051 17.4667 20.1589C18.8244 19.7017 19.4191 18.067 18.6785 16.8096L17.3882 14.6262C17.0516 14.0317 16.7599 12.9686 16.7599 12.2713V8.96764C16.7599 5.19529 13.7304 2.10883 10.0277 2.10883Z" stroke="#292D32" stroke-width="1.5" stroke-miterlimit="10" stroke-linecap="round"/>
<path d="M12.1036 2.44035C11.7558 2.33747 11.3968 2.25745 11.0265 2.21172C9.94935 2.07455 8.91709 2.15457 7.95215 2.44035C8.27753 1.59443 9.08539 1 10.0279 1C10.9704 1 11.7782 1.59443 12.1036 2.44035Z" stroke="#292D32" stroke-width="1.5" stroke-miterlimit="10" stroke-linecap="round" stroke-linejoin="round"/>
<path d="M13.3942 20.5706C13.3942 22.4567 11.8795 24 10.0282 24C9.10811 24 8.25538 23.6113 7.64949 22.994C7.0436 22.3767 6.66211 21.5079 6.66211 20.5706" stroke="#292D32" stroke-width="1.5" stroke-miterlimit="10"/>
</svg>
