<svg width="193" height="143" viewBox="0 0 193 143" fill="none" xmlns="http://www.w3.org/2000/svg">
<path d="M86 10C86 4.47716 90.4772 0 96 0V0C101.523 0 106 4.47715 106 10V90C106 95.5228 101.523 100 96 100V100C90.4772 100 86 95.5228 86 90V10Z" fill="#979797"/>
<path d="M56 60C50.4772 60 46 55.5228 46 50V50C46 44.4772 50.4772 40 56 40H136C141.523 40 146 44.4772 146 50V50C146 55.5228 141.523 60 136 60L56 60Z" fill="#979797"/>
<path d="M11.4082 137.251V139H1.97754V137.251H11.4082ZM2.52246 137.251V142.146H0.413086L0.333984 137.251H2.52246ZM13.1133 137.251L12.9814 142.138H10.9072V137.251H13.1133ZM9.86133 126.203V127.961H3.95508V126.203H9.86133ZM11.5488 126.203V139H9.35156V126.203H11.5488ZM3.51562 126.203H5.72168L5.41406 131.389C5.36719 132.209 5.28223 132.947 5.15918 133.604C5.03613 134.26 4.88672 134.849 4.71094 135.37C4.54102 135.886 4.34766 136.343 4.13086 136.741C3.91406 137.134 3.68262 137.474 3.43652 137.761C3.19043 138.048 2.93848 138.294 2.68066 138.499C2.42871 138.698 2.17969 138.865 1.93359 139H0.755859V137.251H1.32715C1.48535 137.104 1.66113 136.894 1.85449 136.618C2.04785 136.337 2.23535 135.971 2.41699 135.52C2.60449 135.062 2.76855 134.497 2.90918 133.823C3.0498 133.149 3.14648 132.338 3.19922 131.389L3.51562 126.203ZM13.898 134.351V134.148C13.898 133.463 13.9976 132.827 14.1968 132.241C14.396 131.649 14.6831 131.137 15.0581 130.703C15.439 130.264 15.9019 129.924 16.4468 129.684C16.9976 129.438 17.6187 129.314 18.3101 129.314C19.0073 129.314 19.6284 129.438 20.1734 129.684C20.7241 129.924 21.19 130.264 21.5708 130.703C21.9517 131.137 22.2417 131.649 22.4409 132.241C22.6402 132.827 22.7398 133.463 22.7398 134.148V134.351C22.7398 135.036 22.6402 135.672 22.4409 136.258C22.2417 136.844 21.9517 137.356 21.5708 137.796C21.19 138.229 20.7271 138.569 20.1821 138.815C19.6372 139.056 19.0191 139.176 18.3277 139.176C17.6304 139.176 17.0064 139.056 16.4556 138.815C15.9107 138.569 15.4478 138.229 15.0669 137.796C14.6861 137.356 14.396 136.844 14.1968 136.258C13.9976 135.672 13.898 135.036 13.898 134.351ZM16.0161 134.148V134.351C16.0161 134.778 16.0601 135.183 16.148 135.563C16.2359 135.944 16.3736 136.278 16.5611 136.565C16.7486 136.853 16.9888 137.078 17.2818 137.242C17.5747 137.406 17.9234 137.488 18.3277 137.488C18.7202 137.488 19.0601 137.406 19.3472 137.242C19.6402 137.078 19.8804 136.853 20.0679 136.565C20.2554 136.278 20.3931 135.944 20.481 135.563C20.5747 135.183 20.6216 134.778 20.6216 134.351V134.148C20.6216 133.727 20.5747 133.328 20.481 132.953C20.3931 132.572 20.2525 132.235 20.0591 131.942C19.8716 131.649 19.6314 131.421 19.3384 131.257C19.0513 131.087 18.7085 131.002 18.3101 131.002C17.9116 131.002 17.5659 131.087 17.273 131.257C16.9859 131.421 16.7486 131.649 16.5611 131.942C16.3736 132.235 16.2359 132.572 16.148 132.953C16.0601 133.328 16.0161 133.727 16.0161 134.148ZM30.2129 125.324H31.9268C31.9268 125.846 31.8536 126.276 31.7071 126.616C31.5664 126.95 31.3555 127.226 31.0743 127.442C30.7989 127.653 30.4561 127.823 30.0459 127.952C29.6416 128.081 29.1729 128.198 28.6397 128.304C28.1475 128.409 27.7022 128.576 27.3037 128.805C26.9112 129.027 26.5801 129.341 26.3106 129.745C26.0469 130.144 25.8565 130.656 25.7393 131.283C25.6221 131.91 25.587 132.675 25.6338 133.577V134.175L23.9551 134.324V133.727C23.9551 132.607 24.0577 131.632 24.2627 130.8C24.4678 129.968 24.7579 129.268 25.1329 128.699C25.5137 128.125 25.9649 127.668 26.4864 127.328C27.0137 126.988 27.5996 126.754 28.2442 126.625C28.6836 126.531 29.0498 126.438 29.3428 126.344C29.6358 126.244 29.8526 126.118 29.9932 125.966C30.1397 125.808 30.2129 125.594 30.2129 125.324ZM28.7276 130.026C29.3604 130.026 29.9229 130.138 30.4151 130.36C30.9073 130.577 31.3233 130.882 31.6631 131.274C32.003 131.667 32.2608 132.13 32.4366 132.663C32.6182 133.196 32.709 133.776 32.709 134.403V134.597C32.709 135.253 32.6123 135.859 32.419 136.416C32.2256 136.973 31.9414 137.459 31.5664 137.875C31.1914 138.285 30.7315 138.607 30.1866 138.842C29.6475 139.07 29.0293 139.185 28.3321 139.185C27.6407 139.185 27.0225 139.064 26.4776 138.824C25.9327 138.584 25.4727 138.25 25.0977 137.822C24.7227 137.389 24.4385 136.882 24.2452 136.302C24.0518 135.722 23.9551 135.089 23.9551 134.403V134.21C23.9493 134.087 23.9815 133.967 24.0518 133.85C24.128 133.732 24.2188 133.606 24.3243 133.472C24.4297 133.337 24.5235 133.182 24.6055 133.006C24.8985 132.414 25.2442 131.896 25.6426 131.45C26.0411 131.005 26.4952 130.656 27.0049 130.404C27.5205 130.152 28.0948 130.026 28.7276 130.026ZM28.3145 131.705C27.7871 131.705 27.3565 131.831 27.0225 132.083C26.6944 132.329 26.4512 132.657 26.293 133.067C26.1407 133.478 26.0645 133.923 26.0645 134.403V134.597C26.0645 134.989 26.1084 135.361 26.1963 135.713C26.2842 136.064 26.4161 136.375 26.5918 136.645C26.7735 136.908 27.0079 137.116 27.295 137.269C27.5879 137.421 27.9336 137.497 28.3321 137.497C28.7364 137.497 29.0791 137.421 29.3604 137.269C29.6475 137.116 29.8789 136.908 30.0547 136.645C30.2364 136.375 30.3682 136.064 30.4502 135.713C30.5381 135.361 30.5821 134.989 30.5821 134.597V134.403C30.5821 134.04 30.5381 133.697 30.4502 133.375C30.3682 133.053 30.2364 132.769 30.0547 132.522C29.8731 132.271 29.6387 132.071 29.3516 131.925C29.0645 131.778 28.7188 131.705 28.3145 131.705ZM39.4615 137.093V132.558C39.4615 132.218 39.4 131.925 39.2769 131.679C39.1539 131.433 38.9664 131.242 38.7144 131.107C38.4683 130.973 38.1578 130.905 37.7828 130.905C37.4371 130.905 37.1382 130.964 36.8863 131.081C36.6343 131.198 36.438 131.356 36.2974 131.556C36.1568 131.755 36.0865 131.98 36.0865 132.232H33.9771C33.9771 131.857 34.0679 131.494 34.2496 131.143C34.4312 130.791 34.6949 130.478 35.0406 130.202C35.3863 129.927 35.7994 129.71 36.2798 129.552C36.7603 129.394 37.2994 129.314 37.897 129.314C38.6119 129.314 39.2447 129.435 39.7955 129.675C40.3521 129.915 40.7886 130.278 41.105 130.765C41.4273 131.245 41.5884 131.849 41.5884 132.575V136.803C41.5884 137.236 41.6177 137.626 41.6763 137.972C41.7408 138.312 41.8316 138.607 41.9488 138.859V139H39.7779C39.6783 138.771 39.5992 138.481 39.5406 138.13C39.4879 137.772 39.4615 137.427 39.4615 137.093ZM39.7691 133.217L39.7867 134.526H38.2662C37.8736 134.526 37.5279 134.564 37.2291 134.641C36.9302 134.711 36.6812 134.816 36.482 134.957C36.2828 135.098 36.1334 135.268 36.0337 135.467C35.9341 135.666 35.8843 135.892 35.8843 136.144C35.8843 136.396 35.9429 136.627 36.0601 136.838C36.1773 137.043 36.3472 137.204 36.5699 137.321C36.7984 137.438 37.0738 137.497 37.3961 137.497C37.8296 137.497 38.2076 137.409 38.5298 137.233C38.858 137.052 39.1158 136.832 39.3033 136.574C39.4908 136.311 39.5904 136.062 39.6021 135.827L40.2877 136.768C40.2173 137.008 40.0972 137.266 39.9273 137.541C39.7574 137.816 39.5347 138.08 39.2593 138.332C38.9898 138.578 38.6646 138.78 38.2837 138.938C37.9087 139.097 37.4752 139.176 36.983 139.176C36.3619 139.176 35.8082 139.053 35.3218 138.807C34.8355 138.555 34.4546 138.218 34.1793 137.796C33.9039 137.368 33.7662 136.885 33.7662 136.346C33.7662 135.842 33.8599 135.396 34.0474 135.01C34.2408 134.617 34.522 134.289 34.8912 134.025C35.2662 133.762 35.7232 133.562 36.2623 133.428C36.8013 133.287 37.4166 133.217 38.108 133.217H39.7691ZM48.1563 134.931H45.1153L45.0977 133.437H47.5938C48.004 133.437 48.3409 133.396 48.6046 133.313C48.8741 133.231 49.0733 133.108 49.2022 132.944C49.3311 132.774 49.3956 132.569 49.3956 132.329C49.3956 132.13 49.3575 131.957 49.2813 131.811C49.2052 131.658 49.088 131.535 48.9298 131.441C48.7774 131.342 48.5841 131.271 48.3497 131.23C48.1212 131.184 47.8546 131.16 47.5499 131.16H45.8184V139H43.7003V129.49H47.5499C48.1593 129.49 48.7071 129.543 49.1934 129.648C49.6856 129.754 50.1046 129.915 50.4503 130.132C50.796 130.349 51.0596 130.624 51.2413 130.958C51.4288 131.286 51.5225 131.673 51.5225 132.118C51.5225 132.411 51.4581 132.687 51.3292 132.944C51.2061 133.202 51.0216 133.431 50.7755 133.63C50.5294 133.829 50.2276 133.993 49.8702 134.122C49.5128 134.245 49.1026 134.321 48.6397 134.351L48.1563 134.931ZM48.1563 139H44.5001L45.3438 137.33H48.1563C48.5313 137.33 48.8419 137.283 49.088 137.189C49.3341 137.096 49.5157 136.961 49.6329 136.785C49.7559 136.604 49.8175 136.39 49.8175 136.144C49.8175 135.892 49.7589 135.675 49.6417 135.493C49.5245 135.312 49.3428 135.174 49.0968 135.08C48.8565 134.98 48.543 134.931 48.1563 134.931H45.7393L45.7569 133.437H48.6309L49.2374 134.017C49.8409 134.058 50.3419 134.187 50.7403 134.403C51.1387 134.62 51.4376 134.893 51.6368 135.221C51.836 135.549 51.9356 135.906 51.9356 136.293C51.9356 136.738 51.8507 137.131 51.6807 137.471C51.5167 137.811 51.2706 138.095 50.9425 138.323C50.6202 138.546 50.2247 138.716 49.7559 138.833C49.2872 138.944 48.754 139 48.1563 139ZM55.6822 135.906L59.4176 129.49H61.5357V139H59.4176V132.575L55.6822 139H53.5641V129.49H55.6822V135.906ZM67.9191 129.49V139H65.7921V129.49H67.9191ZM71.0392 129.49V131.16H62.7247V129.49H71.0392ZM73.7575 132.514H76.5612C77.3815 132.514 78.0788 132.651 78.653 132.927C79.2272 133.202 79.6637 133.586 79.9625 134.078C80.2672 134.564 80.4196 135.121 80.4196 135.748C80.4196 136.211 80.3346 136.642 80.1647 137.04C79.9948 137.433 79.7428 137.775 79.4088 138.068C79.0807 138.361 78.6764 138.59 78.1959 138.754C77.7213 138.918 77.1764 139 76.5612 139H72.3512V129.49H74.4782V137.321H76.5612C76.983 137.321 77.32 137.248 77.5719 137.102C77.8239 136.955 78.0055 136.765 78.1168 136.53C78.234 136.296 78.2926 136.047 78.2926 135.783C78.2926 135.514 78.234 135.259 78.1168 135.019C78.0055 134.778 77.8239 134.582 77.5719 134.43C77.32 134.277 76.983 134.201 76.5612 134.201H73.7575V132.514ZM92.5534 133.463V135.133H87.6315V133.463H92.5534ZM88.2468 129.49V139H86.1286V129.49H88.2468ZM94.0827 129.49V139H91.9645V129.49H94.0827ZM101.433 137.093V132.558C101.433 132.218 101.371 131.925 101.248 131.679C101.125 131.433 100.938 131.242 100.686 131.107C100.44 130.973 100.129 130.905 99.7541 130.905C99.4084 130.905 99.1096 130.964 98.8576 131.081C98.6057 131.198 98.4094 131.356 98.2688 131.556C98.1281 131.755 98.0578 131.98 98.0578 132.232H95.9484C95.9484 131.857 96.0393 131.494 96.2209 131.143C96.4025 130.791 96.6662 130.478 97.0119 130.202C97.3576 129.927 97.7707 129.71 98.2512 129.552C98.7316 129.394 99.2707 129.314 99.8684 129.314C100.583 129.314 101.216 129.435 101.767 129.675C102.323 129.915 102.76 130.278 103.076 130.765C103.399 131.245 103.56 131.849 103.56 132.575V136.803C103.56 137.236 103.589 137.626 103.648 137.972C103.712 138.312 103.803 138.607 103.92 138.859V139H101.749C101.65 138.771 101.571 138.481 101.512 138.13C101.459 137.772 101.433 137.427 101.433 137.093ZM101.74 133.217L101.758 134.526H100.238C99.8449 134.526 99.4992 134.564 99.2004 134.641C98.9016 134.711 98.6525 134.816 98.4533 134.957C98.2541 135.098 98.1047 135.268 98.0051 135.467C97.9055 135.666 97.8557 135.892 97.8557 136.144C97.8557 136.396 97.9143 136.627 98.0314 136.838C98.1486 137.043 98.3186 137.204 98.5412 137.321C98.7697 137.438 99.0451 137.497 99.3674 137.497C99.801 137.497 100.179 137.409 100.501 137.233C100.829 137.052 101.087 136.832 101.275 136.574C101.462 136.311 101.562 136.062 101.573 135.827L102.259 136.768C102.189 137.008 102.069 137.266 101.899 137.541C101.729 137.816 101.506 138.08 101.231 138.332C100.961 138.578 100.636 138.78 100.255 138.938C99.8801 139.097 99.4465 139.176 98.9543 139.176C98.3332 139.176 97.7795 139.053 97.2932 138.807C96.8068 138.555 96.426 138.218 96.1506 137.796C95.8752 137.368 95.7375 136.885 95.7375 136.346C95.7375 135.842 95.8313 135.396 96.0188 135.01C96.2121 134.617 96.4934 134.289 96.8625 134.025C97.2375 133.762 97.6945 133.562 98.2336 133.428C98.7727 133.287 99.3879 133.217 100.079 133.217H101.74ZM111.885 129.49V131.178H107.192V129.49H111.885ZM107.693 129.49V139H105.575V129.49H107.693ZM113.547 129.49V139H111.42V129.49H113.547ZM117.645 131.318V142.656H115.527V129.49H117.478L117.645 131.318ZM123.841 134.157V134.342C123.841 135.033 123.759 135.675 123.595 136.267C123.437 136.853 123.199 137.365 122.883 137.805C122.573 138.238 122.189 138.575 121.732 138.815C121.275 139.056 120.747 139.176 120.15 139.176C119.558 139.176 119.039 139.067 118.594 138.851C118.155 138.628 117.782 138.314 117.478 137.91C117.173 137.506 116.927 137.031 116.739 136.486C116.558 135.936 116.429 135.332 116.353 134.676V133.964C116.429 133.267 116.558 132.634 116.739 132.065C116.927 131.497 117.173 131.008 117.478 130.598C117.782 130.188 118.155 129.871 118.594 129.648C119.033 129.426 119.546 129.314 120.132 129.314C120.73 129.314 121.26 129.432 121.723 129.666C122.186 129.895 122.575 130.223 122.892 130.65C123.208 131.072 123.446 131.582 123.604 132.18C123.762 132.771 123.841 133.431 123.841 134.157ZM121.723 134.342V134.157C121.723 133.718 121.682 133.311 121.6 132.936C121.518 132.555 121.389 132.221 121.213 131.934C121.037 131.646 120.812 131.424 120.536 131.266C120.267 131.102 119.942 131.02 119.561 131.02C119.186 131.02 118.864 131.084 118.594 131.213C118.324 131.336 118.099 131.509 117.917 131.731C117.736 131.954 117.595 132.215 117.495 132.514C117.396 132.807 117.325 133.126 117.284 133.472V135.177C117.355 135.599 117.475 135.985 117.645 136.337C117.815 136.688 118.055 136.97 118.365 137.181C118.682 137.386 119.086 137.488 119.578 137.488C119.959 137.488 120.284 137.406 120.554 137.242C120.823 137.078 121.043 136.853 121.213 136.565C121.389 136.272 121.518 135.936 121.6 135.555C121.682 135.174 121.723 134.77 121.723 134.342ZM130.734 137.093V132.558C130.734 132.218 130.673 131.925 130.55 131.679C130.427 131.433 130.239 131.242 129.987 131.107C129.741 130.973 129.43 130.905 129.055 130.905C128.71 130.905 128.411 130.964 128.159 131.081C127.907 131.198 127.711 131.356 127.57 131.556C127.429 131.755 127.359 131.98 127.359 132.232H125.25C125.25 131.857 125.341 131.494 125.522 131.143C125.704 130.791 125.968 130.478 126.313 130.202C126.659 129.927 127.072 129.71 127.552 129.552C128.033 129.394 128.572 129.314 129.17 129.314C129.885 129.314 130.517 129.435 131.068 129.675C131.625 129.915 132.061 130.278 132.378 130.765C132.7 131.245 132.861 131.849 132.861 132.575V136.803C132.861 137.236 132.89 137.626 132.949 137.972C133.013 138.312 133.104 138.607 133.221 138.859V139H131.051C130.951 138.771 130.872 138.481 130.813 138.13C130.761 137.772 130.734 137.427 130.734 137.093ZM131.042 133.217L131.059 134.526H129.539C129.146 134.526 128.801 134.564 128.502 134.641C128.203 134.711 127.954 134.816 127.755 134.957C127.555 135.098 127.406 135.268 127.306 135.467C127.207 135.666 127.157 135.892 127.157 136.144C127.157 136.396 127.216 136.627 127.333 136.838C127.45 137.043 127.62 137.204 127.843 137.321C128.071 137.438 128.346 137.497 128.669 137.497C129.102 137.497 129.48 137.409 129.802 137.233C130.131 137.052 130.388 136.832 130.576 136.574C130.763 136.311 130.863 136.062 130.875 135.827L131.56 136.768C131.49 137.008 131.37 137.266 131.2 137.541C131.03 137.816 130.807 138.08 130.532 138.332C130.262 138.578 129.937 138.78 129.556 138.938C129.181 139.097 128.748 139.176 128.256 139.176C127.635 139.176 127.081 139.053 126.594 138.807C126.108 138.555 125.727 138.218 125.452 137.796C125.177 137.368 125.039 136.885 125.039 136.346C125.039 135.842 125.133 135.396 125.32 135.01C125.513 134.617 125.795 134.289 126.164 134.025C126.539 133.762 126.996 133.562 127.535 133.428C128.074 133.287 128.689 133.217 129.381 133.217H131.042ZM139.429 134.931H136.388L136.37 133.437H138.866C139.277 133.437 139.614 133.396 139.877 133.313C140.147 133.231 140.346 133.108 140.475 132.944C140.604 132.774 140.668 132.569 140.668 132.329C140.668 132.13 140.63 131.957 140.554 131.811C140.478 131.658 140.361 131.535 140.202 131.441C140.05 131.342 139.857 131.271 139.622 131.23C139.394 131.184 139.127 131.16 138.823 131.16H137.091V139H134.973V129.49H138.823C139.432 129.49 139.98 129.543 140.466 129.648C140.958 129.754 141.377 129.915 141.723 130.132C142.069 130.349 142.332 130.624 142.514 130.958C142.701 131.286 142.795 131.673 142.795 132.118C142.795 132.411 142.731 132.687 142.602 132.944C142.479 133.202 142.294 133.431 142.048 133.63C141.802 133.829 141.5 133.993 141.143 134.122C140.785 134.245 140.375 134.321 139.912 134.351L139.429 134.931ZM139.429 139H135.773L136.616 137.33H139.429C139.804 137.33 140.115 137.283 140.361 137.189C140.607 137.096 140.788 136.961 140.906 136.785C141.029 136.604 141.09 136.39 141.09 136.144C141.09 135.892 141.032 135.675 140.914 135.493C140.797 135.312 140.616 135.174 140.369 135.08C140.129 134.98 139.816 134.931 139.429 134.931H137.012L137.03 133.437H139.904L140.51 134.017C141.114 134.058 141.615 134.187 142.013 134.403C142.411 134.62 142.71 134.893 142.909 135.221C143.109 135.549 143.208 135.906 143.208 136.293C143.208 136.738 143.123 137.131 142.953 137.471C142.789 137.811 142.543 138.095 142.215 138.323C141.893 138.546 141.497 138.716 141.029 138.833C140.56 138.944 140.027 139 139.429 139ZM151.156 129.49V131.178H146.515V129.49H151.156ZM152.817 129.49V139H150.699V129.49H152.817ZM145.997 129.49H148.089L147.834 134.192C147.799 134.89 147.728 135.505 147.623 136.038C147.523 136.565 147.388 137.02 147.219 137.4C147.049 137.775 146.841 138.08 146.595 138.314C146.348 138.549 146.061 138.722 145.733 138.833C145.405 138.944 145.036 139 144.626 139H143.967L143.958 137.26L144.292 137.233C144.509 137.216 144.696 137.16 144.854 137.066C145.012 136.967 145.147 136.826 145.259 136.645C145.376 136.463 145.47 136.229 145.54 135.941C145.616 135.654 145.675 135.314 145.716 134.922C145.762 134.529 145.798 134.072 145.821 133.551L145.997 129.49ZM158.99 139.176C158.286 139.176 157.651 139.062 157.082 138.833C156.52 138.599 156.039 138.273 155.641 137.857C155.248 137.441 154.947 136.952 154.736 136.39C154.525 135.827 154.419 135.221 154.419 134.57V134.219C154.419 133.475 154.528 132.801 154.744 132.197C154.961 131.594 155.263 131.078 155.65 130.65C156.036 130.217 156.493 129.886 157.021 129.657C157.548 129.429 158.119 129.314 158.735 129.314C159.414 129.314 160.009 129.429 160.519 129.657C161.029 129.886 161.451 130.208 161.784 130.624C162.124 131.034 162.376 131.523 162.54 132.092C162.71 132.66 162.795 133.287 162.795 133.973V134.878H155.448V133.357H160.703V133.19C160.692 132.81 160.616 132.452 160.475 132.118C160.34 131.784 160.132 131.515 159.851 131.31C159.57 131.104 159.195 131.002 158.726 131.002C158.374 131.002 158.061 131.078 157.785 131.23C157.516 131.377 157.29 131.591 157.109 131.872C156.927 132.153 156.786 132.493 156.687 132.892C156.593 133.284 156.546 133.727 156.546 134.219V134.57C156.546 134.986 156.602 135.373 156.713 135.73C156.83 136.082 157 136.39 157.223 136.653C157.446 136.917 157.715 137.125 158.032 137.277C158.348 137.424 158.708 137.497 159.113 137.497C159.622 137.497 160.076 137.395 160.475 137.189C160.873 136.984 161.219 136.694 161.512 136.319L162.628 137.4C162.423 137.699 162.157 137.986 161.828 138.262C161.5 138.531 161.099 138.751 160.624 138.921C160.156 139.091 159.611 139.176 158.99 139.176ZM170.673 133.463V135.133H165.751V133.463H170.673ZM166.366 129.49V139H164.248V129.49H166.366ZM172.202 129.49V139H170.084V129.49H172.202ZM176.379 135.906L180.115 129.49H182.233V139H180.115V132.575L176.379 139H174.261V129.49H176.379V135.906ZM188.396 139.176C187.693 139.176 187.057 139.062 186.489 138.833C185.927 138.599 185.446 138.273 185.048 137.857C184.655 137.441 184.353 136.952 184.142 136.39C183.932 135.827 183.826 135.221 183.826 134.57V134.219C183.826 133.475 183.934 132.801 184.151 132.197C184.368 131.594 184.67 131.078 185.057 130.65C185.443 130.217 185.9 129.886 186.428 129.657C186.955 129.429 187.526 129.314 188.141 129.314C188.821 129.314 189.416 129.429 189.926 129.657C190.435 129.886 190.857 130.208 191.191 130.624C191.531 131.034 191.783 131.523 191.947 132.092C192.117 132.66 192.202 133.287 192.202 133.973V134.878H184.854V133.357H190.11V133.19C190.099 132.81 190.022 132.452 189.882 132.118C189.747 131.784 189.539 131.515 189.258 131.31C188.976 131.104 188.601 131.002 188.133 131.002C187.781 131.002 187.468 131.078 187.192 131.23C186.923 131.377 186.697 131.591 186.516 131.872C186.334 132.153 186.193 132.493 186.094 132.892C186 133.284 185.953 133.727 185.953 134.219V134.57C185.953 134.986 186.009 135.373 186.12 135.73C186.237 136.082 186.407 136.39 186.63 136.653C186.852 136.917 187.122 137.125 187.438 137.277C187.755 137.424 188.115 137.497 188.519 137.497C189.029 137.497 189.483 137.395 189.882 137.189C190.28 136.984 190.626 136.694 190.919 136.319L192.035 137.4C191.83 137.699 191.563 137.986 191.235 138.262C190.907 138.531 190.506 138.751 190.031 138.921C189.562 139.091 189.017 139.176 188.396 139.176Z" fill="#979797"/>
</svg>
