<svg width="20" height="26" viewBox="0 0 20 26" fill="none" xmlns="http://www.w3.org/2000/svg">
<path d="M10.0277 2.13477C6.31385 2.13477 3.29562 5.28179 3.29562 9.15415V12.5352C3.29562 13.2488 3.00389 14.3368 2.65607 14.9451L1.36574 17.1796C0.569107 18.5601 1.1189 20.0927 2.57752 20.6074C7.41343 22.2921 12.6308 22.2921 17.4667 20.6074C18.8244 20.1395 19.4191 18.4665 18.6785 17.1796L17.3882 14.9451C17.0516 14.3368 16.7599 13.2488 16.7599 12.5352V9.15415C16.7599 5.29349 13.7304 2.13477 10.0277 2.13477Z" stroke="#292D32" stroke-width="1.5" stroke-miterlimit="10" stroke-linecap="round"/>
<path d="M12.1036 2.47407C11.7558 2.36878 11.3968 2.28689 11.0265 2.24009C9.94935 2.0997 8.91709 2.1816 7.95215 2.47407C8.27753 1.60835 9.08539 1 10.0279 1C10.9704 1 11.7782 1.60835 12.1036 2.47407Z" stroke="#292D32" stroke-width="1.5" stroke-miterlimit="10" stroke-linecap="round" stroke-linejoin="round"/>
<path d="M13.3942 21.0288C13.3942 22.9591 11.8795 24.5385 10.0282 24.5385C9.10811 24.5385 8.25538 24.1407 7.64949 23.509C7.0436 22.8772 6.66211 21.9881 6.66211 21.0288" stroke="#292D32" stroke-width="1.5" stroke-miterlimit="10"/>
</svg>
