<svg width="45" height="45" viewBox="0 0 45 45" fill="none" xmlns="http://www.w3.org/2000/svg">
<path d="M30.7211 14.4963C30.6086 14.4775 30.4773 14.4775 30.3648 14.4963C27.7773 14.4025 25.7148 12.2838 25.7148 9.65879C25.7148 6.97754 27.8711 4.82129 30.5523 4.82129C33.2336 4.82129 35.3898 6.99629 35.3898 9.65879C35.3711 12.2838 33.3086 14.4025 30.7211 14.4963Z" stroke="#292D32" stroke-width="1.5" stroke-linecap="round" stroke-linejoin="round"/>
<path d="M28.1873 26.369C31.034 26.7736 34.1716 26.3514 36.3741 25.1024C39.3039 23.4487 39.3039 20.7395 36.3741 19.0859C34.1508 17.8368 30.9717 17.4146 28.125 17.8368" stroke="#292D32" stroke-width="1.5" stroke-linecap="round" stroke-linejoin="round"/>
<path d="M14.5096 14.3547C14.6221 14.3359 14.7534 14.3359 14.8659 14.3547C17.4534 14.2609 19.5159 12.1422 19.5159 9.51718C19.5159 6.83593 17.3596 4.67968 14.6784 4.67968C11.9971 4.67968 9.84089 6.85468 9.84089 9.51718C9.85964 12.1422 11.9221 14.2609 14.5096 14.3547Z" stroke="#292D32" stroke-width="1.5" stroke-linecap="round" stroke-linejoin="round"/>
<path d="M16.0091 26.369C13.1624 26.7736 10.0249 26.3514 7.82234 25.1024C4.89255 23.4487 4.89255 20.7395 7.82234 19.0859C10.0456 17.8368 13.2248 17.4146 16.0714 17.8368" stroke="#292D32" stroke-width="1.5" stroke-linecap="round" stroke-linejoin="round"/>
<path d="M22.4994 27.4314C22.3869 27.4126 22.2557 27.4126 22.1432 27.4314C19.5557 27.3376 17.4932 25.2189 17.4932 22.5939C17.4932 19.9126 19.6494 17.7563 22.3307 17.7563C25.0119 17.7563 27.1682 19.9314 27.1682 22.5939C27.1494 25.2189 25.0869 27.3564 22.4994 27.4314Z" stroke="#292D32" stroke-width="1.5" stroke-linecap="round" stroke-linejoin="round"/>
<path d="M17.2504 32.0263C14.6066 33.7888 14.6066 36.6763 17.2504 38.4388C20.2504 40.445 25.1629 40.445 28.1629 38.4388C30.8066 36.6763 30.8066 33.7888 28.1629 32.0263C25.1816 30.0388 20.2504 30.0388 17.2504 32.0263Z" stroke="#292D32" stroke-width="1.5" stroke-linecap="round" stroke-linejoin="round"/>
</svg>
