<svg width="45" height="45" viewBox="0 0 45 45" fill="none" xmlns="http://www.w3.org/2000/svg">
<path d="M37.5 15.4688V33.75C37.5 39.375 34.1438 41.25 30 41.25H15C10.8562 41.25 7.5 39.375 7.5 33.75V15.4688C7.5 9.375 10.8562 7.96875 15 7.96875C15 9.13125 15.4687 10.1812 16.2374 10.95C17.0062 11.7187 18.0562 12.1875 19.2188 12.1875H25.7812C28.1063 12.1875 30 10.2938 30 7.96875C34.1438 7.96875 37.5 9.375 37.5 15.4688Z" stroke="#292D32" stroke-width="1.5" stroke-linecap="round" stroke-linejoin="round"/>
<path d="M30 7.96875C30 10.2938 28.1063 12.1875 25.7812 12.1875H19.2188C18.0562 12.1875 17.0062 11.7187 16.2374 10.95C15.4687 10.1812 15 9.13125 15 7.96875C15 5.64375 16.8937 3.75 19.2188 3.75H25.7812C26.9438 3.75 27.9938 4.21876 28.7626 4.98751C29.5313 5.75626 30 6.80625 30 7.96875Z" stroke="#292D32" stroke-width="1.5" stroke-linecap="round" stroke-linejoin="round"/>
<path d="M15 24.375H22.5" stroke="#292D32" stroke-width="1.5" stroke-linecap="round" stroke-linejoin="round"/>
<path d="M15 31.875H30" stroke="#292D32" stroke-width="1.5" stroke-linecap="round" stroke-linejoin="round"/>
</svg>
